<svg height="512pt" viewBox="0 -36 512 512" width="512pt" xmlns="http://www.w3.org/2000/svg"><path d="m502 390v20c0 11.050781-8.949219 20-20 20h-452c-11.050781 0-20-8.949219-20-20v-20c0-11.050781 8.949219-20 20-20h452c11.050781 0 20 8.949219 20 20zm0 0" fill="#ff641a"/><path d="m502 90v20c0 11.050781-8.949219 20-20 20-45.125 0-396.140625 0-452 0-11.050781 0-20-8.949219-20-20v-20c0-11.050781 8.949219-20 20-20h452c11.050781 0 20 8.949219 20 20zm0 0" fill="#ff641a"/><path d="m472 130v240h-432v-240zm0 0" fill="#ffda2d"/><path d="m436 30v40h-80v-40c0-11.050781 8.949219-20 20-20h40c11.050781 0 20 8.949219 20 20zm0 0" fill="#deecf1"/><path d="m296 250-60 80 10-70-40-20 50-70v60zm0 0" fill="#7c8388"/><path d="m156 30v40h-80v-40c0-11.050781 8.949219-20 20-20h40c11.050781 0 20 8.949219 20 20zm0 0" fill="#deecf1"/><path d="m482 60h-36v-30c0-16.542969-13.457031-30-30-30h-40c-16.542969 0-30 13.457031-30 30v30h-180v-30c0-16.542969-13.457031-30-30-30h-40c-16.542969 0-30 13.457031-30 30v30h-36c-16.542969 0-30 13.457031-30 30v20c0 16.542969 13.457031 30 30 30v220c-16.542969 0-30 13.457031-30 30v20c0 16.542969 13.457031 30 30 30h181c5.523438 0 10-4.476562 10-10s-4.476562-10-10-10h-181c-5.515625 0-10-4.484375-10-10v-20c0-5.515625 4.484375-10 10-10h452c5.515625 0 10 4.484375 10 10v20c0 5.515625-4.484375 10-10 10h-181c-5.523438 0-10 4.476562-10 10s4.476562 10 10 10h181c16.542969 0 30-13.457031 30-30v-20c0-16.542969-13.457031-30-30-30v-220c16.542969 0 30-13.457031 30-30v-20c0-16.542969-13.457031-30-30-30zm-116-30c0-5.515625 4.484375-10 10-10h40c5.515625 0 10 4.484375 10 10v30h-60zm-280 0c0-5.515625 4.484375-10 10-10h40c5.515625 0 10 4.484375 10 10v30h-60zm376 330h-412v-220h412zm30-250c0 5.515625-4.484375 10-10 10h-452c-5.515625 0-10-4.484375-10-10v-20c0-5.515625 4.484375-10 10-10h452c5.515625 0 10 4.484375 10 10zm0 0"/><path d="m106 260h20v20c0 5.523438 4.476562 10 10 10s10-4.476562 10-10v-20h20c5.523438 0 10-4.476562 10-10s-4.476562-10-10-10h-20v-20c0-5.523438-4.476562-10-10-10s-10 4.476562-10 10v20h-20c-5.523438 0-10 4.476562-10 10s4.476562 10 10 10zm0 0"/><path d="m346 260h60c5.523438 0 10-4.476562 10-10s-4.476562-10-10-10h-60c-5.523438 0-10 4.476562-10 10s4.476562 10 10 10zm0 0"/><path d="m201.527344 248.945312 33.554687 16.773438-8.980469 62.867188c-.648437 4.519531 1.851563 8.902343 6.074219 10.652343 4.1875 1.738281 9.066407.4375 11.824219-3.238281l60-80c1.78125-2.371094 2.414062-5.414062 1.734375-8.296875-.683594-2.886719-2.609375-5.320313-5.261719-6.648437l-34.472656-17.234376v-53.820312c0-4.347656-2.808594-8.195312-6.949219-9.523438-4.136719-1.328124-8.660156.175782-11.1875 3.710938l-50 70c-1.699219 2.378906-2.273437 5.382812-1.566406 8.222656.703125 2.835938 2.613281 5.226563 5.230469 6.535156zm44.472656-47.742187v28.796875c0 3.789062 2.140625 7.25 5.527344 8.945312l29.28125 14.640626-29.390625 39.1875 4.480469-31.359376c.609374-4.261718-1.578126-8.433593-5.429688-10.359374l-29.53125-14.765626zm0 0"/><path d="m266 430c0 5.523438-4.476562 10-10 10s-10-4.476562-10-10 4.476562-10 10-10 10 4.476562 10 10zm0 0"/></svg>