<svg height="512pt" viewBox="0 -62 512.001 512" width="512pt" xmlns="http://www.w3.org/2000/svg"><path d="m503.636719 317.488281-15.367188-36.492187h-10.097656l-20.199219 38.375h-450.398437v31.554687h486.753906c5.574219 0 10.097656-4.519531 10.097656-10.097656v-19.417969c0-1.347656-.269531-2.679687-.789062-3.921875zm0 0" fill="#c6e3f7"/><path d="m54.027344 165.871094h182.660156c17.414062 0 33.984375 7.488281 45.488281 20.5625l48.554688 55.175781h66.652343c33.460938 0 60.589844 27.128906 60.589844 60.59375v17.167969h-368.601562l-55.542969-98.96875zm0 0" fill="#ff5c64"/><path d="m397.382812 241.609375h-40.394531c33.460938 0 60.589844 27.128906 60.589844 60.59375v17.167969h40.394531v-17.167969c0-33.464844-27.128906-60.59375-60.589844-60.59375zm0 0" fill="#ff2444"/><path d="m457.972656 288.0625h-224.191406l-111.082031-67.660156h-88.871094l55.542969 98.964844h368.601562zm0 0" fill="#ffe266"/><path d="m457.972656 288.0625h-149.953125c-4.425781 4.761719-8.125 10.207031-10.921875 16.160156h-117.949218c-7.085938-33.460937-36.785157-58.574218-72.355469-58.574218-18.597657 0-35.578125 6.878906-48.574219 18.210937l31.152344 55.511719h368.601562zm0 0" fill="#fcd21d"/><path d="m7.574219 89.121094 66.652343 8.078125 16.15625 31.304687-82.808593-9.085937zm0 0" fill="#ffe266"/><path d="m74.226562 97.199219-19.113281-2.316407.382813.742188c3.695312 7.15625-2.070313 15.546875-10.078125 14.667969l-37.84375-4.152344v13.273437l82.808593 9.089844zm0 0" fill="#fcd21d"/><path d="m404.449219 331.109375c0 27.675781-22.4375 50.113281-50.113281 50.113281-27.679688 0-50.113282-22.4375-50.113282-50.113281 0-27.679687 22.433594-50.113281 50.113282-50.113281 27.675781 0 50.113281 22.433594 50.113281 50.113281zm0 0" fill="#57565c"/><path d="m354.335938 280.996094c-3.460938 0-6.839844.347656-10.101563 1.015625 22.839844 4.671875 40.019531 24.878906 40.019531 49.097656s-17.179687 44.421875-40.019531 49.09375c3.261719.667969 6.640625 1.019531 10.101563 1.019531 27.675781 0 50.113281-22.4375 50.113281-50.113281 0-27.679687-22.4375-50.113281-50.113281-50.113281zm0 0" fill="#424144"/><path d="m168.394531 319.621094c0 34.023437-27.578125 61.601562-61.601562 61.601562-34.023438 0-61.601563-27.578125-61.601563-61.601562 0-34.019532 27.578125-61.601563 61.601563-61.601563 34.023437 0 61.601562 27.582031 61.601562 61.601563zm0 0" fill="#57565c"/><path d="m106.792969 258.019531c-4.371094 0-8.636719.464844-12.75 1.328125 27.902343 5.875 48.851562 30.625 48.851562 60.273438 0 29.648437-20.949219 54.398437-48.851562 60.273437 4.113281.867188 8.378906 1.328125 12.75 1.328125 34.023437 0 61.601562-27.578125 61.601562-61.601562 0-34.023438-27.578125-61.601563-61.601562-61.601563zm0 0" fill="#424144"/><path d="m213.585938 29.792969c0 12.269531-9.945313 22.214843-22.21875 22.214843-12.269532 0-22.214844-9.945312-22.214844-22.214843 0-12.273438 9.945312-22.21875 22.214844-22.21875 12.273437 0 22.21875 9.945312 22.21875 22.21875zm0 0" fill="#ff5c64"/><path d="m199.804688 9.238281c1.070312 2.601563 1.664062 5.445313 1.664062 8.433594 0 12.269531-9.949219 22.21875-22.21875 22.21875-2.988281 0-5.835938-.59375-8.4375-1.664063 3.324219 8.085938 11.273438 13.78125 20.554688 13.78125 12.269531 0 22.21875-9.945312 22.21875-22.214843 0-9.285157-5.695313-17.234375-13.78125-20.554688zm0 0" fill="#ff2444"/><path d="m330.730469 241.609375-48.554688-55.175781c-11.503906-13.074219-28.074219-20.5625-45.488281-20.5625h-59.457031l48.554687 55.175781c11.503906 13.070313 28.074219 20.5625 45.488282 20.5625zm0 0" fill="#88e9ff"/><path d="m282.175781 186.433594c-11.222656-12.75-27.261719-20.167969-44.203125-20.527344l30.535156 34.695312c5.742188 6.523438 1.109376 16.769532-7.578124 16.769532h-37.121094c-.429688 0-.855469-.023438-1.285156-.035156l3.261718 3.710937c11.503906 13.070313 28.074219 20.5625 45.488282 20.5625h59.457031zm0 0" fill="#2dd3f9"/><path d="m369.910156 331.109375c0 8.601563-6.972656 15.574219-15.574218 15.574219-8.601563 0-15.574219-6.972656-15.574219-15.574219s6.972656-15.574219 15.574219-15.574219c8.601562 0 15.574218 6.972656 15.574218 15.574219zm0 0"/><path d="m122.367188 319.621094c0 8.601562-6.972657 15.574218-15.574219 15.574218-8.601563 0-15.574219-6.972656-15.574219-15.574218 0-8.601563 6.972656-15.574219 15.574219-15.574219 8.601562 0 15.574219 6.972656 15.574219 15.574219zm0 0"/><path d="m510.617188 314.550781-15.371094-36.496093c-1.179688-2.808594-3.929688-4.632813-6.976563-4.632813h-10.097656c-2.8125 0-5.394531 1.554687-6.703125 4.042969l-5.921875 11.25v-.652344c0-2.492188-1.210937-4.699219-3.070313-6.078125-8.765624-28.445313-34.917968-47.949219-65.09375-47.949219h-59.078124v-28.433594c0-33.363281-9.195313-66.042968-26.589844-94.511718-17.394532-28.46875-42.277344-51.5625-71.964844-66.785156l-18.980469-9.734376c.253907-1.554687.390625-3.152343.390625-4.777343 0-16.429688-13.363281-29.792969-29.792968-29.792969-16.425782 0-29.789063 13.363281-29.789063 29.792969 0 16.425781 13.363281 29.789062 29.789063 29.789062 9.378906 0 17.753906-4.359375 23.222656-11.15625l18.246094 9.355469c55.710937 28.570312 90.320312 85.210938 90.320312 147.820312v15.9375l-35.296875-40.113281c-12.9375-14.699219-31.589844-23.128906-51.167969-23.128906h-94.808594c-4.183593 0-7.574218 3.390625-7.574218 7.574219s3.390625 7.574218 7.574218 7.574218h31.921876l46.292968 52.605469c12.9375 14.703125 31.589844 23.132813 51.175782 23.132813h57.546874c.609376.160156 1.246094.253906 1.910157.253906.660156 0 1.296875-.09375 1.910156-.253906h64.738281c21.292969 0 40.003906 12.476562 48.386719 31.308594h-63.789063c-8.210937-4.503907-17.632812-7.070313-27.640624-7.070313-10.011719 0-19.429688 2.566406-27.644532 7.070313h-90.785156l-109.269531-66.558594c-1.1875-.722656-2.546875-1.101563-3.9375-1.101563h-77.988281l14.589843-39.386719h48.25c4.183594 0 7.574219-3.390624 7.574219-7.574218s-3.390625-7.574219-7.574219-7.574219h-47.574219l-6.390624-26.210937 35.96875 3.949218c.277343.03125.554687.042969.828124.042969h.058594c4.164063-.019531 7.535156-3.402344 7.535156-7.574219 0-1.445312-.402343-2.792968-1.105468-3.941406l-15.917969-30.835938c-1.148437-2.230468-3.328125-3.742187-5.816406-4.046874l-66.652344-8.078126c-2.148437-.265624-4.3125.410157-5.933594 1.851563-1.621093 1.4375-2.550781 3.5-2.550781 5.667969v30.296875c0 3.863281 2.90625 7.105469 6.746094 7.527343l30.816406 3.382813 8.558594 35.085937-19.390625 52.359376c-.050781.136718-.089844.277343-.128907.417968-.03125.09375-.066406.1875-.089843.285156-.074219.285157-.136719.570313-.175781.863282 0 .007812-.003907.015625-.007813.023437-.039063.300781-.058594.601563-.066406.90625 0 .089844.007812.179688.007812.273438.003907.210937.011719.421875.035157.632812.011718.109375.027343.214844.042968.324219.03125.195312.0625.386719.109375.582031.023438.109375.050781.214844.078125.324219.054688.199219.121094.398438.195313.59375.03125.089844.058593.183594.097656.273438.117187.285156.246094.566406.398437.835937l27.859376 49.628906c-9.222657 10.382813-15.371094 23.542969-17.011719 38.054688h-30.5c-4.183594 0-7.574219 3.390625-7.574219 7.574219v31.558593c0 4.183594 3.390625 7.574219 7.574219 7.574219h42.035156c12.464844 18.273438 33.445313 30.296875 57.183594 30.296875s44.71875-12.023437 57.183593-30.296875h43.550782c4.183594 0 7.574218-3.390625 7.574218-7.574219 0-4.183593-3.390624-7.574219-7.574218-7.574219h-35.753906c1.910156-5.207031 3.203124-10.707031 3.804687-16.410156h121.234375c-.097656 1.378906-.164062 2.761719-.164062 4.167969 0 4.199219.460937 8.292969 1.320312 12.242187h-54.710938c-4.183593 0-7.574218 3.390626-7.574218 7.574219 0 4.183594 3.390625 7.574219 7.574218 7.574219h60.320313c9.765625 18.027344 28.855469 30.296875 50.757813 30.296875 21.902343 0 40.992187-12.269531 50.757812-30.296875h89.234375c9.746094 0 17.671875-7.925781 17.671875-17.671875v-19.421875c0-2.339844-.460938-4.632812-1.382812-6.855469zm-319.25-270.117187c-8.070313 0-14.640626-6.570313-14.640626-14.644532 0-8.074218 6.570313-14.640624 14.640626-14.640624 8.074218 0 14.644531 6.566406 14.644531 14.640624 0 8.074219-6.570313 14.644532-14.644531 14.644532zm79.90625 189.601562c-15.234376 0-29.738282-6.558594-39.800782-17.992187l-37.488281-42.597657h42.703125c15.234375 0 29.738281 6.554688 39.800781 17.992188l37.488281 42.597656zm-256.125-136.367187 54.183593 6.566406 7.847657 15.199219-62.03125-6.804688zm384.632812 197.96875h50.203125c.269531 2.171875.414063 4.363281.414063 6.566406v9.59375h-41.710938c-2.097656-5.886719-5.128906-11.328125-8.90625-16.160156zm-384.632812 47.714843v-16.40625h22.859374c.601563 5.703126 1.894532 11.203126 3.804688 16.40625zm91.644531 30.296876c-29.789063 0-54.027344-24.238282-54.027344-54.027344 0-29.792969 24.238281-54.027344 54.027344-54.027344 29.792969 0 54.027343 24.234375 54.027343 54.027344 0 29.789062-24.234374 54.027344-54.027343 54.027344zm68.71875-61.855469c-3.898438-34.46875-33.222657-61.347657-68.71875-61.347657-14.96875 0-28.832031 4.796876-40.167969 12.910157l-19.859375-35.378907h73.808594l109.269531 66.554688c1.1875.722656 2.550781 1.105469 3.9375 1.105469h75.109375c-3.78125 4.832031-6.808594 10.273437-8.90625 16.15625zm178.824219 61.855469c-23.457032 0-42.539063-19.082032-42.539063-42.539063s19.082031-42.539063 42.539063-42.539063c23.453124 0 42.539062 19.082032 42.539062 42.539063s-19.082031 42.539063-42.539062 42.539063zm142.515624-32.820313c0 1.390625-1.132812 2.523437-2.523437 2.523437h-83.625c.855469-3.945312 1.320313-8.042968 1.320313-12.242187 0-1.402344-.066407-2.789063-.167969-4.167969h46.117187c.320313 0 .636719-.023437.945313-.0625.082031-.011718.160156-.027344.238281-.039062.253906-.039063.5-.089844.742188-.152344.0625-.015625.125-.03125.183593-.046875.304688-.089844.605469-.195313.894531-.320313.011719-.003906.023438-.011718.039063-.015624.269531-.121094.527344-.257813.78125-.402344.0625-.039063.121094-.074219.183594-.113282.230469-.144531.449219-.296874.660156-.460937.035156-.027344.070313-.050781.101563-.078125.238281-.195312.460937-.402344.671874-.621094.050782-.050781.101563-.109375.148438-.164062.167969-.183594.328125-.375.476562-.578125.042969-.054688.085938-.109375.125-.167969.183594-.257812.351563-.523438.5-.804688.003907-.007812.007813-.011718.011719-.019531l18.066407-34.328125h.5l13.402343 31.824219c.136719.332031.207031.683594.207031 1.015625zm0 0"/></svg>