<?xml version="1.0" encoding="iso-8859-1"?>
<!-- Generator: Adobe Illustrator 19.0.0, SVG Export Plug-In . SVG Version: 6.00 Build 0)  -->
<svg version="1.1" id="Capa_1" xmlns="http://www.w3.org/2000/svg" xmlns:xlink="http://www.w3.org/1999/xlink" x="0px" y="0px"
	 viewBox="0 0 512 512" style="enable-background:new 0 0 512 512;" xml:space="preserve">
<path style="fill:#FFB124;" d="M291.133,347.805h-70.265c-3.49,0-6.32-2.829-6.32-6.32v-46.948c0-3.49,2.829-6.32,6.32-6.32h70.265
	c3.49,0,6.32,2.829,6.32,6.32v46.948C297.452,344.976,294.623,347.805,291.133,347.805z"/>
<path style="fill:#FF901E;" d="M291.133,288.217H256v59.588h35.133c3.49,0,6.32-2.829,6.32-6.32v-46.948
	C297.452,291.047,294.623,288.217,291.133,288.217z"/>
<circle style="fill:#FFFCFD;" cx="256" cy="318.01" r="13.12"/>
<path style="fill:#2D5872;" d="M289.597,262.967h-67.195c-7.736,0-14.008-6.272-14.008-14.008v-14.512h95.211v14.512
	C303.605,256.695,297.334,262.967,289.597,262.967z"/>
<path style="fill:#1D4859;" d="M266.645,262.967h22.953c7.628,0,13.82-6.1,13.992-13.687l0.016-14.772l-36.922-0.06L266.645,262.967
	z"/>
<path style="fill:#AF8A83;" d="M479.549,176.479h-54.184l-118.367-39.253c-4.393-1.457-8.99-2.199-13.618-2.199h-74.76
	c-4.628,0-9.226,0.742-13.618,2.199L86.635,176.479H32.451c-7.744,0-14.022,6.278-14.022,14.022v10.907
	c0,9.664,7.834,17.497,17.497,17.497h122.701c6.616,0,12.558,4.046,14.983,10.201l0,0c2.425,6.155,8.367,10.201,14.983,10.201
	h134.813c6.616,0,12.558-4.046,14.983-10.201l0,0c2.425-6.155,8.367-10.201,14.983-10.201h122.701
	c9.664,0,17.497-7.834,17.497-17.497v-10.907C493.571,182.757,487.293,176.479,479.549,176.479z"/>
<path style="fill:#927167;" d="M479.549,176.479h-22.96v42.426h19.485c9.663,0,17.497-7.834,17.497-17.497v-10.907
	C493.571,182.757,487.293,176.479,479.549,176.479z"/>
<g>
	<path style="fill:#55A2EF;" d="M137.487,376.973h-9.259c-5.114,0-9.26-4.146-9.26-9.26V218.904h27.934L137.487,376.973z"/>
	<path style="fill:#55A2EF;" d="M374.513,376.973h9.259c5.114,0,9.26-4.146,9.26-9.26V218.904h-27.934L374.513,376.973z"/>
</g>
<g>
	<path style="fill:#FF4C4C;" d="M72.289,157.007H17.488c-5.634,0-10.201-4.567-10.201-10.201l0,0
		c0-5.634,4.567-10.201,10.201-10.201h54.801c5.634,0,10.201,4.567,10.201,10.201l0,0C82.49,152.44,77.923,157.007,72.289,157.007z"
		/>
	<path style="fill:#FF4C4C;" d="M494.512,157.007h-54.801c-5.634,0-10.201-4.567-10.201-10.201l0,0
		c0-5.634,4.567-10.201,10.201-10.201h54.801c5.634,0,10.201,4.567,10.201,10.201l0,0
		C504.713,152.44,500.146,157.007,494.512,157.007z"/>
</g>
<path d="M333.96,178.488c-2.387-3.239-6.95-3.929-10.189-1.544c-3.24,2.388-3.931,6.95-1.544,10.189l9.068,12.306
	c1.429,1.938,3.636,2.965,5.872,2.965c1.501,0,3.016-0.463,4.317-1.421c3.24-2.388,3.931-6.95,1.544-10.189L333.96,178.488z"/>
<path d="M358.488,178.488c-2.387-3.239-6.947-3.929-10.189-1.544c-3.239,2.387-3.931,6.949-1.544,10.189l9.067,12.306
	c1.429,1.938,3.636,2.965,5.872,2.965c1.501,0,3.015-0.463,4.317-1.421c3.239-2.387,3.931-6.949,1.544-10.189L358.488,178.488z"/>
<path d="M307.742,178.488c-2.388-3.239-6.95-3.929-10.189-1.544c-3.24,2.388-3.931,6.95-1.544,10.189l9.068,12.306
	c1.429,1.938,3.636,2.965,5.872,2.965c1.501,0,3.016-0.463,4.317-1.421c3.24-2.388,3.931-6.95,1.544-10.189L307.742,178.488z"/>
<path d="M188.229,176.945c-3.238-2.385-7.8-1.695-10.189,1.544l-9.068,12.305c-2.387,3.239-1.696,7.801,1.544,10.189
	c1.301,0.958,2.816,1.421,4.317,1.421c2.236,0,4.443-1.027,5.872-2.965l9.068-12.306
	C192.159,183.895,191.469,179.332,188.229,176.945z"/>
<path d="M163.701,176.945c-3.24-2.385-7.801-1.695-10.189,1.544l-9.067,12.305c-2.387,3.24-1.695,7.802,1.544,10.189
	c1.302,0.958,2.816,1.421,4.317,1.421c2.236,0,4.443-1.027,5.872-2.965l9.067-12.306
	C167.632,183.893,166.94,179.331,163.701,176.945z"/>
<path d="M214.447,176.945c-3.238-2.385-7.801-1.695-10.189,1.544l-9.068,12.305c-2.387,3.239-1.696,7.801,1.544,10.189
	c1.301,0.958,2.816,1.421,4.317,1.421c2.236,0,4.443-1.027,5.872-2.965l9.068-12.306
	C218.378,183.895,217.687,179.332,214.447,176.945z"/>
<path d="M256,338.414c11.25,0,20.402-9.153,20.402-20.402c0-11.25-9.153-20.402-20.402-20.402c-11.25,0-20.402,9.153-20.402,20.402
	C235.598,329.26,244.75,338.414,256,338.414z M256,312.182c3.214,0,5.829,2.615,5.829,5.829s-2.615,5.829-5.829,5.829
	s-5.829-2.615-5.829-5.829S252.786,312.182,256,312.182z"/>
<path d="M494.512,164.294c9.642,0,17.488-7.845,17.488-17.488s-7.845-17.488-17.488-17.488h-54.801
	c-9.642,0-17.488,7.845-17.488,17.488s7.845,17.488,17.488,17.488h20.114v4.898h-33.284l-117.249-38.881
	c-5.139-1.706-10.493-2.57-15.913-2.57H218.62c-5.418,0-10.771,0.864-15.911,2.569l-117.25,38.882H52.175v-4.898h20.114
	c9.642,0,17.488-7.845,17.488-17.488s-7.845-17.488-17.488-17.488H17.488C7.845,129.32,0,137.164,0,146.807
	s7.845,17.488,17.488,17.488h20.114v4.898h-5.15c-11.75,0-21.308,9.559-21.308,21.308v10.907c0,13.666,11.118,24.784,24.784,24.784
	h75.754v45.717c0,4.025,3.262,7.287,7.287,7.287s7.287-3.262,7.287-7.287v-45.717h12.915l-8.547,143.494h-2.394
	c-1.088,0-1.973-0.885-1.973-1.973v-58.64c0-4.025-3.262-7.287-7.287-7.287s-7.287,3.262-7.287,7.287v58.64
	c0,9.123,7.423,16.546,16.546,16.546h9.259c3.856,0,7.045-3.004,7.273-6.853l9.007-151.214h4.861c3.646,0,6.866,2.193,8.203,5.584
	c3.545,9.002,12.087,14.818,21.763,14.818h12.514v2.365c0,11.742,9.552,21.294,21.294,21.294h4.128v10.677h-5.663
	c-7.503,0-13.606,6.103-13.606,13.606v46.949c0,7.503,6.103,13.606,13.606,13.606h70.266c7.503,0,13.606-6.103,13.606-13.606
	v-46.949c0-7.503-6.103-13.606-13.606-13.606h-5.663v-10.677h4.128c11.742,0,21.294-9.552,21.294-21.294v-2.365h12.514
	c9.676,0,18.218-5.816,21.762-14.817c1.338-3.393,4.558-5.585,8.204-5.585h4.861l9.007,151.214c0.229,3.849,3.417,6.853,7.273,6.853
	h9.259c9.123,0,16.546-7.423,16.546-16.546v-58.44c0-4.025-3.262-7.287-7.287-7.287s-7.287,3.262-7.287,7.287v58.44
	c0,1.088-0.885,1.973-1.973,1.973h-2.394l-8.547-143.494h12.915v45.717c0,4.025,3.262,7.287,7.287,7.287s7.287-3.262,7.287-7.287
	v-45.717h75.754c13.666,0,24.784-11.118,24.784-24.784V190.5c0-11.75-9.559-21.308-21.308-21.308h-5.15v-4.898L494.512,164.294
	L494.512,164.294z M17.488,149.721c-1.607,0-2.915-1.307-2.915-2.915s1.307-2.915,2.915-2.915h54.801
	c1.607,0,2.915,1.307,2.915,2.915s-1.307,2.915-2.915,2.915H17.488z M290.166,295.504v45.015h-68.332v-45.015L290.166,295.504
	L290.166,295.504z M241.103,280.931v-10.677h29.793v10.677H241.103z M296.319,248.958c0,3.706-3.015,6.721-6.721,6.721h-67.195
	c-3.706,0-6.721-3.015-6.721-6.721v-2.365h80.638v2.365H296.319z M479.548,183.766c3.713,0,6.735,3.022,6.735,6.735v10.907
	c0,5.63-4.581,10.211-10.211,10.211h-83.041h-27.935H353.37c-9.674,0-18.215,5.816-21.763,14.818
	c-1.336,3.393-4.556,5.584-8.203,5.584h-19.801h-95.211h-19.801c-3.647,0-6.867-2.192-8.204-5.585
	c-3.546-9.001-12.088-14.817-21.762-14.817h-11.726h-27.935H35.927c-5.63,0-10.211-4.581-10.211-10.211V190.5
	c0-3.713,3.022-6.735,6.735-6.735h54.183c0.779,0,1.554-0.125,2.293-0.37l118.368-39.253c3.657-1.213,7.468-1.828,11.324-1.828
	h74.761c3.857,0,7.666,0.615,11.324,1.829l118.367,39.252c0.739,0.245,1.514,0.37,2.293,0.37L479.548,183.766L479.548,183.766z
	 M439.712,149.721c-1.607,0-2.915-1.307-2.915-2.915s1.307-2.915,2.915-2.915h54.801c1.607,0,2.915,1.307,2.915,2.915
	s-1.307,2.915-2.915,2.915H439.712z"/>
<g>
</g>
<g>
</g>
<g>
</g>
<g>
</g>
<g>
</g>
<g>
</g>
<g>
</g>
<g>
</g>
<g>
</g>
<g>
</g>
<g>
</g>
<g>
</g>
<g>
</g>
<g>
</g>
<g>
</g>
</svg>
