<svg height="512" viewBox="0 0 64 64" width="512" xmlns="http://www.w3.org/2000/svg"><g id="Filled_outline" data-name="Filled outline"><path d="m45 25h-26l-7 6v24l4 6h32l4-6v-24z" fill="#2d75bb"/><g fill="#f9bb4b"><path d="m23.973 31a5 5 0 1 0 0 8h2.027v-8z"/><path d="m43 30a4.959 4.959 0 0 0 -2.973 1h-2.027v8h2.027a4.993 4.993 0 1 0 2.973-9z"/><path d="m29 21h6v4h-6z"/></g><path d="m32 3a2 2 0 0 1 2 2v16a0 0 0 0 1 0 0h-4a0 0 0 0 1 0 0v-16a2 2 0 0 1 2-2z" fill="#50b4f8"/><path d="m30 33h4v6h-4z" fill="#fff69a"/><path d="m27 28h2v2h-2z" fill="#e1462b"/><path d="m35 28h2v2h-2z" fill="#e1462b"/><path d="m31 28h2v2h-2z" fill="#e1462b"/><path d="m12 39 7 7v15h-3l-4-6z" fill="#50b4f8"/><path d="m52 39-7 7v15h3l4-6z" fill="#50b4f8"/><path d="m26 43h4v4h-4z" fill="#fff69a"/><path d="m34 43h4v4h-4z" fill="#fff69a"/><path d="m21 43h2v2h-2z" fill="#f4f4e6"/><path d="m41 43h2v2h-2z" fill="#f4f4e6"/><path d="m23 51h18v10h-18z" fill="#50b4f8"/><path d="m45.651 24.241a1 1 0 0 0 -.651-.241h-9v-3a1 1 0 0 0 -1-1v-15a3 3 0 0 0 -6 0v15a1 1 0 0 0 -1 1v3h-9a1 1 0 0 0 -.651.241l-7 6a1 1 0 0 0 -.349.759v24a1.006 1.006 0 0 0 .168.555l4 6a1 1 0 0 0 .832.445h32a1 1 0 0 0 .832-.445l4-6a1.006 1.006 0 0 0 .168-.555v-24a1 1 0 0 0 -.349-.759zm-14.651-19.241a1 1 0 0 1 2 0v15h-2zm-1 17h4v2h-4zm-12 38h-1.465l-3.535-5.3v-3.286l2.293 2.293 1.414-1.414-3.707-3.707v-2.172l2.293 2.293 1.414-1.414-3.707-3.707v-2.172l5 5zm22 0h-16v-8h16zm11-16.414-3.707 3.707 1.414 1.414 2.293-2.293v2.172l-3.707 3.707 1.414 1.414 2.293-2.293v3.286l-3.535 5.3h-1.465v-13.586l5-5zm0-5-6.707 6.707a1 1 0 0 0 -.293.707v14h-2v-10h-20v10h-2v-14a1 1 0 0 0 -.293-.707l-6.707-6.707v-7.126l6.37-5.46h25.26l6.37 5.46z"/><circle cx="21" cy="35" r="2"/><circle cx="43" cy="35" r="2"/><path d="m29 40h6v-8h-6zm2-6h2v4h-2z"/><path d="m27 28h2v2h-2z"/><path d="m35 28h2v2h-2z"/><path d="m31 28h2v2h-2z"/><path d="m25 48h6v-6h-6zm2-4h2v2h-2z"/><path d="m33 48h6v-6h-6zm2-4h2v2h-2z"/><path d="m27 39v-8a1 1 0 0 0 -1-1h-1.711a5.926 5.926 0 0 0 -3.289-1 6 6 0 0 0 0 12 5.926 5.926 0 0 0 3.289-1h1.711a1 1 0 0 0 1-1zm-2-1h-1.027a1 1 0 0 0 -.6.2 3.956 3.956 0 0 1 -2.373.8 4 4 0 0 1 0-8 3.956 3.956 0 0 1 2.375.8 1 1 0 0 0 .6.2h1.025z"/><path d="m39.711 30h-1.711a1 1 0 0 0 -1 1v8a1 1 0 0 0 1 1h1.711a5.926 5.926 0 0 0 3.289 1 6 6 0 0 0 0-12 5.926 5.926 0 0 0 -3.289 1zm7.289 5a4 4 0 0 1 -4 4 3.956 3.956 0 0 1 -2.375-.8 1 1 0 0 0 -.6-.2h-1.025v-6h1.027a1 1 0 0 0 .6-.2 3.956 3.956 0 0 1 2.373-.8 4 4 0 0 1 4 4z"/><path d="m21 43h2v2h-2z"/><path d="m41 43h2v2h-2z"/><path d="m32 56h-4v-2h-2v4h6z"/><path d="m34 56h2v2h-2z"/><path d="m25.937 6.5a7.006 7.006 0 0 0 .23 7.372l1.666-1.107a5.005 5.005 0 0 1 -.165-5.265z"/><path d="m22.083 5.6a11.1 11.1 0 0 0 -1.083 4.4 11.113 11.113 0 0 0 1.083 4.4l1.834-.8a9.257 9.257 0 0 1 -.917-3.6 9.248 9.248 0 0 1 .917-3.6z"/><path d="m37.833 13.871a7.006 7.006 0 0 0 .23-7.372l-1.731 1a5.005 5.005 0 0 1 -.165 5.263z"/><path d="m41.917 14.4a11.113 11.113 0 0 0 1.083-4.4 11.1 11.1 0 0 0 -1.083-4.4l-1.834.8a9.248 9.248 0 0 1 .917 3.6 9.257 9.257 0 0 1 -.917 3.6z"/></g></svg>